# xmcd CD database file
#
# Track frame offsets:
#	150
#	4720
#	20532
#	32925
#	52992
#	64440
#	76217
#	94297
#	107992
#	131035
#	154192
#	167947
#	180852
#
# Disc length: 2576 seconds
#
# Revision: 2
# Processed by: cddbd v1.4PL0 Copyright (c) Steve Scherf et al.
# Submitted via: CDex 1.50beta9
#
DISCID=a80a0e0d
DTITLE=Adoniran Barbosa - Seu Último Show Gravado Ao Vivo
DYEAR=1979
DGENRE=Samba
TTITLE0=Abertura: Trem Das Onze
TTITLE1=Já Fui Uma Brasa
TTITLE2=As Mariposa
TTITLE3=Um Samba No Bexiga
TTITLE4=Samba Italiano
TTITLE5=Bom Dia Tristeza
TTITLE6=Apaga O Fogo Mané
TTITLE7=Samba Do Arnesto
TTITLE8=Despejo Na Favela
TTITLE9=Uma Simples Margarida (Samba Do Metrô)
TTITLE10=Viaduto Santa Efigênia
TTITLE11=Iracema
TTITLE12=Rua Dos Gusmões
EXTD=YEAR: 1979
EXTT0=
EXTT1=
EXTT2=
EXTT3=
EXTT4=
EXTT5=
EXTT6=
EXTT7=
EXTT8=
EXTT9=
EXTT10=
EXTT11=
EXTT12=
PLAYORDER=
